PathFileType	4	(X/Y/Z)	S:\OneDrive - The University of Tokyo\ìåëÂéˆã∆\ÉoÉCÉÅÉJ\ë™íË\hirabayashi_2\Trimmed\Trimmed_Trimmed_ShSs3-51P.trc
DataRate	CameraRate	NumFrames	NumMarkers	Units	OrigDataRate	OrigDataStartFrame	OrigNumFrames
200.00	200.00	      4	51	mm	200.00	1289	      1718
Frame#	Time	handRI			handRO			wrRI			wrRO			elbRI			elbRO			shRF			shRU			shRB			handLI			handLO			wrLI			wrLO			elbLI			elbLO			shLF			shLU			shLB			toeR			baRI			baRO			heelR			anRI			anRO			knRI			knRO			troR			toeL			baLI			baLO			heelL			anLI			anLO			knLI			knLO			troL			head			earR			earL			clav			c7			ribR			ribL			xiph			t12			ASISR			ASISL			PSISR			PSISL			ThR			ThL			
		X1	Y1	Z1	X2	Y2	Z2	X3	Y3	Z3	X4	Y4	Z4	X5	Y5	Z5	X6	Y6	Z6	X7	Y7	Z7	X8	Y8	Z8	X9	Y9	Z9	X10	Y10	Z10	X11	Y11	Z11	X12	Y12	Z12	X13	Y13	Z13	X14	Y14	Z14	X15	Y15	Z15	X16	Y16	Z16	X17	Y17	Z17	X18	Y18	Z18	X19	Y19	Z19	X20	Y20	Z20	X21	Y21	Z21	X22	Y22	Z22	X23	Y23	Z23	X24	Y24	Z24	X25	Y25	Z25	X26	Y26	Z26	X27	Y27	Z27	X28	Y28	Z28	X29	Y29	Z29	X30	Y30	Z30	X31	Y31	Z31	X32	Y32	Z32	X33	Y33	Z33	X34	Y34	Z34	X35	Y35	Z35	X36	Y36	Z36	X37	Y37	Z37	X38	Y38	Z38	X39	Y39	Z39	X40	Y40	Z40	X41	Y41	Z41	X42	Y42	Z42	X43	Y43	Z43	X44	Y44	Z44	X45	Y45	Z45	X46	Y46	Z46	X47	Y47	Z47	X48	Y48	Z48	X49	Y49	Z49	X50	Y50	Z50	X51	Y51	Z51	

1289	6.440	-583.03137	1577.09387	1633.34253	-607.03668	1670.86108	1648.46118	-625.44012	1569.65198	1696.12402	-689.86023	1627.86401	1687.72351	-726.37732	1512.99463	1941.10706	-693.96643	1583.47314	1932.54077	-843.25146	1540.84875	2155.34375	-817.33789	1638.81140	2189.30566	-743.32739	1643.72217	2269.50391	-1242.44727	1643.72925	1629.76917	-1204.71057	1735.91492	1665.76733	-1201.64087	1641.61218	1699.37085	-1137.21240	1684.42798	1682.62329	-1108.35901	1564.92114	1940.68689	-1129.68445	1647.86267	1939.27283	-993.02985	1572.64929	2154.85986	-1000.27246	1666.84204	2198.46387	-1071.96069	1689.27954	2262.45898	-921.64282	1665.43848	3835.29321	-957.57062	1688.35291	3762.24585	-868.12823	1716.59717	3769.39575	-918.42236	1840.78125	3635.70117	-952.87054	1742.73889	3619.24121	-859.13660	1778.99585	3644.20190	-928.87439	1689.35205	3244.30151	-812.74060	1690.64014	3247.04565	-754.86780	1597.62769	2806.05811	-1012.68304	1684.15759	3824.88037	-978.39575	1686.52051	3750.96533	-1054.05164	1744.62610	3760.93921	-961.83923	1844.05823	3627.54346	-963.05322	1753.98792	3617.42822	-1038.25525	1807.61963	3640.31763	-957.66644	1696.30566	3227.90161	-1067.36560	1732.38696	3219.30493	-1102.16785	1670.34375	2788.60864	-902.08240	1795.96509	2033.76025	-813.89386	1641.15405	2082.81152	-992.95502	1655.27673	2068.18530	-920.20111	1481.26270	2203.58447	-913.21429	1662.55859	2211.03320	-768.10651	1492.75732	2532.06494	-1101.32361	1551.31104	2540.48413	-936.80621	1412.60962	2416.30688	-907.92249	1642.81042	2527.99585	-818.43335	1480.55493	2745.47803	-1090.56458	1534.80981	2716.43408	-856.28583	1644.29504	2659.29688	-953.24420	1667.18433	2652.73633	-782.52441	1688.79773	2992.02417	-1071.46997	1742.01843	2981.53027	
1290	6.445	-583.02319	1577.07446	1633.37109	-607.02954	1670.83118	1648.48718	-625.43732	1569.64722	1696.14758	-689.85974	1627.85828	1687.73181	-726.38745	1513.00159	1941.13586	-693.98883	1583.49109	1932.55811	-843.33197	1540.82910	2155.32056	-817.42950	1638.84741	2189.33325	-743.33612	1643.70190	2269.50854	-1242.44141	1643.73059	1629.78662	-1204.64990	1735.92859	1665.78064	-1201.63110	1641.59814	1699.38171	-1137.18445	1684.44678	1682.63428	-1108.35754	1564.91357	1940.70532	-1129.72546	1647.87781	1939.32117	-993.05774	1572.71326	2154.87134	-1000.31140	1666.85767	2198.55469	-1072.02612	1689.26746	2262.50610	-921.79010	1664.67969	3835.45288	-957.79761	1687.68555	3762.43701	-868.26129	1715.85059	3769.47168	-918.60199	1839.94629	3635.78345	-953.11774	1742.11377	3619.31519	-859.32513	1777.83081	3644.29688	-929.05487	1688.71814	3244.43677	-812.88312	1689.70984	3247.15454	-755.08917	1597.02124	2806.08936	-1012.86835	1683.07776	3825.18628	-978.38855	1685.83899	3751.16406	-1054.17236	1743.76404	3761.06421	-961.90833	1843.32410	3627.69482	-963.16785	1753.10120	3617.32178	-1038.39612	1806.88342	3640.35400	-957.56604	1695.58276	3227.98755	-1067.42468	1731.73682	3219.29053	-1102.15820	1669.79517	2788.69238	-902.13538	1796.07813	2033.86902	-813.93866	1641.16089	2082.87305	-992.97052	1655.31665	2068.20825	-920.26160	1481.25269	2203.53467	-913.25946	1662.54517	2211.05200	-768.18030	1492.40955	2532.01758	-1101.43616	1550.99976	2540.48486	-936.84937	1412.43103	2416.25439	-907.98438	1642.55383	2528.08521	-818.63672	1480.04688	2745.45483	-1090.72998	1534.47937	2716.44556	-856.40454	1644.05640	2659.33691	-953.42462	1666.77844	2652.83154	-782.53558	1688.27173	2992.16870	-1071.66797	1741.44812	2981.58765	
1291	6.450	-583.03461	1577.10352	1633.38953	-607.01880	1670.84290	1648.50916	-625.41388	1569.64307	1696.18127	-689.84460	1627.85339	1687.74939	-726.43085	1513.00342	1941.14099	-693.99384	1583.48938	1932.59656	-843.35809	1540.86316	2155.29639	-817.49512	1638.88696	2189.40771	-743.47418	1643.61536	2269.63159	-1242.43628	1643.73206	1629.80310	-1204.61267	1735.92090	1665.79077	-1201.64124	1641.63831	1699.43054	-1137.15588	1684.50525	1682.64429	-1108.35925	1564.91113	1940.70789	-1129.77527	1647.91345	1939.37524	-993.12598	1572.66248	2154.85327	-1000.36273	1666.85693	2198.57007	-1072.08179	1689.27148	2262.55786	-921.88824	1663.47388	3835.52783	-958.06909	1686.84033	3762.78442	-868.40906	1714.93201	3769.45117	-918.78528	1838.90845	3635.97803	-949.66003	1741.20056	3622.78662	-859.53571	1776.87952	3644.53345	-929.26276	1687.98145	3244.60352	-812.97681	1689.07593	3247.26709	-755.22827	1596.59790	2806.14380	-1013.15295	1681.19092	3825.13452	-978.36969	1684.87183	3751.30957	-1054.36523	1742.93750	3761.21484	-962.04987	1842.34827	3627.87183	-956.70496	1753.25977	3622.19409	-1038.58215	1805.94629	3640.41724	-957.56201	1694.76318	3227.98926	-1067.59045	1731.09839	3219.34888	-1102.24390	1669.27954	2788.75977	-902.22070	1796.18616	2034.04626	-814.68762	1640.98486	2083.74780	-993.11566	1656.06653	2068.46362	-920.33514	1481.24536	2203.44019	-913.34326	1662.53125	2211.12500	-768.22620	1492.10596	2531.97314	-1101.52112	1550.83679	2540.45483	-936.91565	1412.30151	2416.13501	-908.11005	1642.29517	2528.16772	-818.83899	1479.56299	2745.37354	-1090.91919	1534.03748	2716.40454	-856.40674	1643.69165	2659.43091	-953.68103	1666.38184	2652.91260	-782.63611	1687.59216	2992.29834	-1071.71375	1740.88794	2981.68628	
1292	6.455	-582.99554	1577.06909	1633.41724	-607.03949	1670.85925	1648.54150	-625.41614	1569.66150	1696.20740	-689.83893	1627.85645	1687.81067	-726.44263	1513.00757	1941.16943	-694.00317	1583.44739	1932.63135	-843.45935	1540.88623	2155.29443	-817.53259	1638.86841	2189.44043	-743.59186	1643.56189	2269.64063	-1242.43237	1643.73376	1629.81799	-1204.60913	1735.94897	1665.81104	-1201.59863	1641.63989	1699.48254	-1137.17883	1684.49463	1682.67883	-1108.35498	1564.93835	1940.76038	-1129.82129	1647.96021	1939.45166	-993.17340	1572.69958	2154.85938	-1000.40912	1666.89197	2198.68433	-1072.11841	1689.26550	2262.61353	-921.94489	1662.32202	3835.52563	-958.16180	1685.04370	3762.84180	-868.48962	1713.82019	3769.61768	-918.94513	1837.85645	3636.17188	-949.51434	1740.31018	3622.95239	-860.00562	1775.71472	3645.06079	-929.42383	1687.24146	3244.87183	-813.02863	1688.41772	3247.41162	-755.37939	1596.19348	2806.17358	-1013.37549	1681.18481	3825.23755	-978.36670	1682.66931	3750.71265	-1054.42798	1741.88245	3761.39160	-962.10858	1841.33777	3628.13403	-956.94196	1752.13635	3622.22876	-1038.70032	1804.96252	3640.60742	-957.68555	1693.81689	3228.04150	-1067.86157	1730.32861	3219.45752	-1102.39990	1668.70886	2788.74341	-902.30383	1796.29004	2034.14490	-814.73877	1641.00659	2083.84033	-993.11670	1656.05945	2068.46436	-920.40851	1481.22693	2203.39746	-913.43365	1662.51050	2211.15112	-768.27917	1491.89197	2531.93896	-1101.64587	1550.57813	2540.48511	-937.02051	1412.09717	2416.01538	-908.27338	1641.97888	2528.31177	-818.97028	1479.17346	2745.29541	-1091.06006	1533.55640	2716.39380	-856.39490	1643.24658	2659.54370	-953.82983	1666.06848	2652.98022	-782.60852	1686.67480	2992.43359	-1071.69971	1740.36792	2981.84741	
